<svg width="254" height="55" viewBox="0 0 254 55" fill="none" xmlns="http://www.w3.org/2000/svg">
<path d="M37.5 4.34003V17.34C38.66 17.34 50.5001 17.34 50.6001 17.34C51.7242 17.3736 52.7916 17.8412 53.5784 18.6448C54.3652 19.4484 54.8102 20.5254 54.8201 21.65V33.19C54.8149 34.3343 54.3601 35.4307 53.5538 36.2426C52.7474 37.0545 51.6543 37.5169 50.5101 37.53H37.5101V50.53C37.5101 51.6811 37.0528 52.785 36.2389 53.5989C35.425 54.4128 34.3211 54.87 33.1701 54.87H21.6501C20.5078 54.8674 19.413 54.4124 18.6053 53.6047C17.7976 52.797 17.3427 51.7023 17.3401 50.56C17.3401 46.22 17.3401 41.88 17.3401 37.56H4.34007C3.7694 37.5626 3.20382 37.4522 2.67607 37.235C2.14832 37.0179 1.66884 36.6983 1.26531 36.2948C0.861771 35.8913 0.542226 35.4117 0.325059 34.884C0.107891 34.3562 -0.0026017 33.7907 4.64986e-05 33.22V21.63C0.00533979 20.4834 0.465294 19.3856 1.27892 18.5776C2.09254 17.7696 3.19341 17.3173 4.34007 17.32H17.3401V4.32001C17.3453 3.17761 17.8008 2.0834 18.6077 1.27466C19.4145 0.465921 20.5077 0.0078848 21.6501 0H33.1801C34.3295 0.00526058 35.4303 0.464207 36.2431 1.27698C37.0559 2.08975 37.5148 3.19061 37.5201 4.34003H37.5ZM27.4101 34.61C28.3594 34.614 29.3002 34.4304 30.1785 34.0698C31.0567 33.7093 31.855 33.1788 32.5277 32.5089C33.2004 31.839 33.7342 31.0429 34.0984 30.1661C34.4626 29.2894 34.6501 28.3494 34.6501 27.4V20.1801H20.1801V30.3H17.3201V20.19H4.32005C3.93722 20.19 3.56991 20.3414 3.29826 20.6112C3.02662 20.881 2.87268 21.2472 2.87004 21.63V33.17C2.87268 33.5529 3.02662 33.9191 3.29826 34.1888C3.56991 34.4586 3.93722 34.6101 4.32005 34.61H27.4101ZM20.1801 37.51V50.51C20.188 50.8884 20.3445 51.2486 20.6159 51.5125C20.8873 51.7763 21.2516 51.9228 21.6301 51.92H33.1601C33.3504 51.9227 33.5393 51.8873 33.7158 51.816C33.8923 51.7447 34.0527 51.6389 34.1878 51.5048C34.3228 51.3707 34.4297 51.2109 34.5022 51.035C34.5748 50.859 34.6114 50.6704 34.6101 50.48V36.08C34.6074 35.6936 34.757 35.3216 35.0265 35.0446C35.296 34.7676 35.6637 34.6079 36.0501 34.6H50.4801C50.8629 34.6 51.2302 34.4487 51.5019 34.1789C51.7735 33.9091 51.9275 33.5429 51.9301 33.16V21.63C51.9283 21.2623 51.7868 20.909 51.5343 20.6416C51.2818 20.3742 50.9371 20.2128 50.5701 20.19H37.5V27.4C37.4948 30.0754 36.4304 32.6398 34.5395 34.5325C32.6487 36.4252 30.0854 37.4921 27.4101 37.5L20.1801 37.51ZM34.6501 17.32V4.32001C34.6542 4.12847 34.6194 3.93809 34.548 3.76031C34.4766 3.58254 34.3699 3.42105 34.2345 3.28558C34.099 3.15011 33.9375 3.04347 33.7598 2.97205C33.582 2.90062 33.3916 2.8659 33.2001 2.87H21.6501C21.4593 2.86867 21.2701 2.90526 21.0936 2.97766C20.9171 3.05006 20.7567 3.15684 20.6218 3.29175C20.4869 3.42666 20.3801 3.58703 20.3077 3.76355C20.2353 3.94007 20.1987 4.12922 20.2001 4.32001V17.32H34.6501Z" fill="#209F85"/>
<path d="M83.9001 17.4001C83.9431 17.3253 84.0061 17.2641 84.0822 17.2234C84.1582 17.1827 84.2441 17.1643 84.3301 17.1701H87.0201C87.1141 17.1723 87.205 17.2037 87.2802 17.2601C87.3291 17.3346 87.3567 17.421 87.3602 17.5101V37.3601C87.3613 37.4408 87.3328 37.519 87.2802 37.5801C87.2477 37.6173 87.2078 37.6473 87.163 37.6679C87.1182 37.6886 87.0695 37.6996 87.0201 37.7001H84.3301C84.2801 37.7043 84.2299 37.6955 84.1843 37.6745C84.1388 37.6534 84.0994 37.6209 84.0701 37.5801C84.0344 37.556 84.0055 37.5231 83.9862 37.4846C83.9669 37.446 83.958 37.4032 83.9601 37.3601V23.3601C83.9601 23.3601 83.9601 23.2501 83.9001 23.2501C83.8401 23.2501 83.8202 23.2501 83.7902 23.3101L80.1301 28.9501C80.0826 29.0174 80.0197 29.0725 79.9467 29.1107C79.8736 29.149 79.7926 29.1694 79.7101 29.1701H78.3502C78.2701 29.1714 78.1911 29.1518 78.1209 29.1132C78.0508 29.0747 77.9919 29.0184 77.9501 28.9501L74.2701 23.3301C74.2701 23.3301 74.2101 23.2501 74.1501 23.3301C74.0901 23.4101 74.0701 23.3301 74.0701 23.4401V37.4401C74.0715 37.481 74.0642 37.5219 74.0487 37.5598C74.0332 37.5977 74.0099 37.6319 73.9802 37.6601C73.9497 37.6971 73.9115 37.7269 73.8683 37.7476C73.8252 37.7684 73.778 37.7795 73.7302 37.7801H71.0302C70.9815 37.7846 70.9326 37.7758 70.8885 37.7547C70.8445 37.7335 70.8071 37.7009 70.7802 37.6601C70.7478 37.6329 70.7213 37.5993 70.7024 37.5615C70.6835 37.5237 70.6725 37.4823 70.6702 37.4401V17.4901C70.6807 17.3976 70.719 17.3104 70.7802 17.2401C70.8133 17.2086 70.8527 17.1843 70.8957 17.1689C70.9387 17.1534 70.9845 17.147 71.0302 17.1501H73.7302C73.811 17.1431 73.892 17.1615 73.9619 17.2027C74.0318 17.244 74.0871 17.3059 74.1201 17.3801L78.9102 24.6101C78.9702 24.6101 79.0002 24.6901 79.0302 24.6901C79.041 24.6918 79.0522 24.6909 79.0627 24.6875C79.0732 24.6841 79.0827 24.6782 79.0905 24.6704C79.0983 24.6626 79.1041 24.6532 79.1075 24.6427C79.111 24.6322 79.1119 24.621 79.1102 24.6101L83.9001 17.4001ZM105.56 19.7501C105.562 19.7945 105.553 19.8388 105.534 19.8789C105.515 19.9191 105.486 19.9538 105.45 19.9801C105.42 20.0191 105.38 20.0496 105.334 20.0689C105.289 20.0881 105.239 20.0954 105.19 20.0901H95.1901C95.0801 20.0901 95.0201 20.1501 95.0201 20.2301V25.7301C95.0201 25.8201 95.0801 25.8801 95.1901 25.8801H101.91C101.955 25.8761 102 25.8842 102.04 25.9036C102.081 25.9229 102.115 25.9529 102.14 25.9901C102.176 26.0165 102.205 26.0512 102.224 26.0913C102.243 26.1315 102.252 26.1757 102.25 26.2201V28.4001C102.249 28.4979 102.21 28.5914 102.14 28.6601C102.109 28.6883 102.073 28.7099 102.033 28.7237C101.994 28.7374 101.952 28.743 101.91 28.7401H95.1901C95.167 28.7368 95.1435 28.7388 95.1213 28.7462C95.0992 28.7535 95.079 28.766 95.0625 28.7825C95.046 28.799 95.0336 28.8191 95.0262 28.8413C95.0189 28.8634 95.0168 28.887 95.0201 28.9101V34.5601C95.0168 34.5832 95.0189 34.6068 95.0262 34.6289C95.0336 34.6511 95.046 34.6712 95.0625 34.6877C95.079 34.7042 95.0992 34.7167 95.1213 34.724C95.1435 34.7314 95.167 34.7335 95.1901 34.7301H105.19C105.237 34.7248 105.284 34.7292 105.328 34.7429C105.373 34.7567 105.415 34.7796 105.45 34.8101C105.52 34.8788 105.559 34.9723 105.56 35.0701V37.3101C105.562 37.3531 105.553 37.396 105.534 37.4346C105.515 37.4731 105.486 37.506 105.45 37.5301C105.422 37.5717 105.382 37.6048 105.337 37.6259C105.291 37.647 105.24 37.6554 105.19 37.6501H92.0101C91.9614 37.6557 91.912 37.6475 91.8678 37.6262C91.8236 37.605 91.7862 37.5717 91.7601 37.5301C91.7264 37.5034 91.6984 37.4701 91.6777 37.4323C91.6571 37.3945 91.6443 37.3529 91.6401 37.3101V17.4901C91.6547 17.3968 91.6964 17.3099 91.7601 17.2401C91.7929 17.2081 91.8322 17.1835 91.8754 17.1679C91.9185 17.1524 91.9644 17.1463 92.0101 17.1501H105.19C105.237 17.1462 105.285 17.1521 105.33 17.1676C105.374 17.1831 105.415 17.2078 105.45 17.2401C105.484 17.2723 105.512 17.311 105.531 17.354C105.549 17.3969 105.559 17.4432 105.56 17.4901V19.7501ZM109.36 37.7001C109.315 37.702 109.269 37.6919 109.229 37.6709C109.189 37.6498 109.155 37.6185 109.13 37.5801C109.094 37.556 109.065 37.5231 109.046 37.4846C109.027 37.446 109.018 37.4032 109.02 37.3601V17.4901C109.021 17.4432 109.031 17.3969 109.05 17.354C109.069 17.311 109.096 17.2723 109.13 17.2401C109.161 17.2106 109.197 17.1875 109.236 17.172C109.276 17.1566 109.318 17.1491 109.36 17.1501H116.53C117.787 17.1205 119.035 17.3627 120.19 17.8601C121.194 18.3113 122.047 19.0399 122.65 19.9601C123.228 20.9259 123.523 22.0348 123.5 23.1601V31.6701C123.528 32.7866 123.233 33.8873 122.65 34.8401C122.055 35.7676 121.199 36.4983 120.19 36.9401C119.038 37.4481 117.789 37.7006 116.53 37.6801L109.36 37.7001ZM112.42 34.6101C112.42 34.7201 112.48 34.7801 112.56 34.7801H116.65C117.114 34.7998 117.577 34.7209 118.008 34.5485C118.438 34.3761 118.828 34.1142 119.15 33.7801C119.783 33.0536 120.116 32.1131 120.08 31.1501V23.7001C120.128 22.7323 119.794 21.7844 119.15 21.0601C118.821 20.7272 118.426 20.4665 117.99 20.2943C117.555 20.1222 117.088 20.0424 116.62 20.0601H112.54C112.503 20.0601 112.467 20.0748 112.441 20.1011C112.415 20.1274 112.4 20.163 112.4 20.2001L112.42 34.6101ZM127.5 37.7001C127.452 37.6994 127.405 37.6884 127.362 37.6676C127.319 37.6469 127.281 37.617 127.25 37.5801C127.22 37.5519 127.197 37.5177 127.182 37.4798C127.166 37.4418 127.159 37.4011 127.16 37.3601V17.4901C127.155 17.4443 127.161 17.398 127.176 17.3546C127.192 17.3113 127.217 17.2718 127.249 17.2393C127.282 17.2067 127.321 17.1818 127.365 17.1664C127.408 17.151 127.454 17.1454 127.5 17.1501H130.19C130.237 17.1462 130.285 17.1521 130.33 17.1676C130.374 17.1831 130.415 17.2078 130.45 17.2401C130.511 17.3104 130.55 17.3976 130.56 17.4901V37.3401C130.558 37.3823 130.547 37.4237 130.528 37.4615C130.509 37.4993 130.483 37.5329 130.45 37.5601C130.422 37.6016 130.382 37.6347 130.337 37.6558C130.291 37.677 130.24 37.6854 130.19 37.6801L127.5 37.7001ZM141.7 37.9201C140.358 37.9487 139.028 37.6573 137.82 37.0701C136.747 36.5169 135.852 35.6708 135.24 34.6301C134.618 33.5339 134.304 32.2902 134.33 31.0301V23.7801C134.309 22.5207 134.623 21.2783 135.24 20.1801C135.854 19.148 136.749 18.312 137.82 17.7701C139.028 17.1829 140.358 16.8915 141.7 16.9201C143.032 16.8998 144.351 17.1801 145.56 17.7401C146.614 18.2662 147.505 19.0679 148.14 20.0601C148.748 21.1108 149.059 22.3066 149.04 23.5201C149.041 23.5687 149.031 23.6169 149.013 23.6617C148.994 23.7065 148.966 23.7468 148.93 23.7801C148.863 23.8457 148.774 23.8848 148.68 23.8901L145.98 24.0301C145.934 24.0368 145.887 24.0327 145.842 24.018C145.798 24.0033 145.758 23.9784 145.725 23.9453C145.692 23.9123 145.667 23.8721 145.652 23.8278C145.638 23.7835 145.633 23.7363 145.64 23.6901C145.657 23.1778 145.571 22.6673 145.385 22.1894C145.199 21.7116 144.919 21.2764 144.56 20.9101C143.759 20.2378 142.746 19.8694 141.7 19.8694C140.654 19.8694 139.642 20.2378 138.84 20.9101C138.472 21.2706 138.183 21.7041 137.991 22.1828C137.8 22.6616 137.711 23.175 137.73 23.6901V31.1801C137.71 31.6939 137.799 32.2061 137.99 32.6834C138.181 33.1606 138.471 33.5923 138.84 33.9501C139.618 34.6637 140.646 35.0411 141.7 35.0001C142.223 35.0289 142.747 34.9506 143.238 34.77C143.73 34.5895 144.18 34.3105 144.56 33.9501C144.923 33.5893 145.207 33.1564 145.393 32.6793C145.579 32.2023 145.663 31.6917 145.64 31.1801C145.637 31.1355 145.643 31.0906 145.66 31.0489C145.676 31.0071 145.701 30.9696 145.734 30.9389C145.766 30.9082 145.805 30.8852 145.848 30.8715C145.891 30.8579 145.936 30.854 145.98 30.8601L148.68 30.9801C148.77 30.9753 148.859 31.0038 148.93 31.0601C148.989 31.1121 149.028 31.1827 149.04 31.2601C149.062 32.4931 148.752 33.7092 148.14 34.7801C147.523 35.7869 146.627 36.5928 145.56 37.1001C144.356 37.6743 143.033 37.9553 141.7 37.9201ZM166.59 19.7501C166.581 19.8371 166.542 19.9184 166.48 19.9801C166.45 20.0191 166.41 20.0496 166.364 20.0689C166.319 20.0881 166.269 20.0954 166.22 20.0901H156.22C156.201 20.0887 156.182 20.0913 156.164 20.0977C156.145 20.1042 156.129 20.1143 156.115 20.1274C156.101 20.1405 156.089 20.1564 156.082 20.1741C156.074 20.1918 156.07 20.2109 156.07 20.2301V25.7301C156.069 25.7502 156.071 25.7703 156.078 25.7892C156.086 25.8081 156.097 25.8253 156.111 25.8395C156.125 25.8537 156.142 25.8647 156.161 25.8717C156.18 25.8787 156.2 25.8816 156.22 25.8801H162.93C162.979 25.8727 163.03 25.879 163.076 25.8984C163.122 25.9178 163.161 25.9496 163.19 25.9901C163.255 26.0496 163.295 26.1321 163.3 26.2201V28.4001C163.29 28.4957 163.252 28.5861 163.19 28.6601C163.155 28.6906 163.113 28.7135 163.068 28.7273C163.024 28.741 162.977 28.7454 162.93 28.7401H156.22C156.13 28.7401 156.07 28.8001 156.07 28.9101V34.5601C156.07 34.6701 156.13 34.7301 156.22 34.7301H166.22C166.267 34.7248 166.314 34.7292 166.359 34.7429C166.403 34.7567 166.445 34.7796 166.48 34.8101C166.538 34.8864 166.575 34.9757 166.59 35.0701V37.3101C166.58 37.3941 166.542 37.472 166.48 37.5301C166.452 37.5717 166.412 37.6048 166.367 37.6259C166.321 37.647 166.27 37.6554 166.22 37.6501H153.01C152.927 37.6325 152.85 37.591 152.79 37.5307C152.729 37.4703 152.688 37.3936 152.67 37.3101V17.4901C152.671 17.4423 152.682 17.3951 152.703 17.3519C152.723 17.3087 152.753 17.2706 152.79 17.2401C152.818 17.2104 152.853 17.187 152.891 17.1715C152.928 17.156 152.969 17.1487 153.01 17.1501H166.22C166.267 17.1462 166.315 17.1521 166.36 17.1676C166.404 17.1831 166.445 17.2078 166.48 17.2401C166.537 17.3129 166.575 17.3989 166.59 17.4901V19.7501ZM181.98 17.5101C181.981 17.4622 181.992 17.4151 182.013 17.3719C182.033 17.3287 182.063 17.2906 182.1 17.2601C182.128 17.2304 182.163 17.2071 182.201 17.1916C182.238 17.176 182.279 17.1687 182.32 17.1701H185.04C185.085 17.1701 185.129 17.1789 185.17 17.196C185.212 17.2131 185.249 17.2381 185.281 17.2697C185.312 17.3013 185.337 17.3387 185.354 17.38C185.371 17.4212 185.38 17.4654 185.38 17.5101V37.3601C185.384 37.4035 185.377 37.4471 185.357 37.486C185.338 37.525 185.307 37.5576 185.27 37.5801C185.246 37.6185 185.212 37.6498 185.171 37.6709C185.131 37.6919 185.086 37.702 185.04 37.7001H182.41C182.329 37.6994 182.25 37.6779 182.18 37.6376C182.11 37.5973 182.051 37.5396 182.01 37.4701L173.56 23.6101C173.56 23.5501 173.48 23.5201 173.45 23.5501C173.42 23.5801 173.39 23.6101 173.39 23.6601L173.45 37.3601C173.452 37.4032 173.443 37.446 173.424 37.4846C173.405 37.5231 173.376 37.556 173.34 37.5801C173.311 37.6209 173.272 37.6534 173.226 37.6745C173.18 37.6955 173.13 37.7043 173.08 37.7001H170.39C170.341 37.6996 170.292 37.6886 170.247 37.6679C170.203 37.6473 170.163 37.6173 170.13 37.5801C170.077 37.519 170.049 37.4408 170.05 37.3601V17.4901C170.054 17.4011 170.081 17.3146 170.13 17.2401C170.205 17.1837 170.296 17.1522 170.39 17.1501H173C173.085 17.1411 173.171 17.1583 173.246 17.1994C173.321 17.2405 173.382 17.3035 173.42 17.3801L181.84 31.2101C181.851 31.2322 181.866 31.2516 181.885 31.2672C181.904 31.2827 181.926 31.294 181.95 31.3001C181.95 31.3001 182.01 31.2401 182.01 31.1601L181.98 17.5101ZM203.16 17.1701C203.206 17.1664 203.252 17.1724 203.295 17.188C203.338 17.2035 203.377 17.2281 203.41 17.2601C203.474 17.3298 203.516 17.4168 203.53 17.5101V19.7801C203.521 19.8693 203.478 19.9516 203.41 20.0101C203.382 20.049 203.344 20.0797 203.3 20.099C203.256 20.1184 203.208 20.1256 203.16 20.1201H197.77C197.66 20.1201 197.63 20.1801 197.63 20.2601V37.3601C197.62 37.4441 197.581 37.522 197.52 37.5801C197.491 37.6209 197.452 37.6534 197.406 37.6745C197.36 37.6955 197.31 37.7043 197.26 37.7001H194.57C194.52 37.7025 194.471 37.6928 194.425 37.6719C194.38 37.651 194.341 37.6195 194.31 37.5801C194.257 37.519 194.229 37.4408 194.23 37.3601V20.2601C194.23 20.1801 194.17 20.1201 194.06 20.1201H188.87C188.823 20.1194 188.777 20.1094 188.734 20.0905C188.691 20.0716 188.652 20.0443 188.62 20.0101C188.591 19.9796 188.568 19.9436 188.552 19.9041C188.537 19.8647 188.529 19.8225 188.53 19.7801V17.5101C188.525 17.4643 188.531 17.418 188.546 17.3747C188.562 17.3313 188.587 17.2919 188.619 17.2593C188.652 17.2267 188.691 17.2019 188.735 17.1864C188.778 17.171 188.824 17.1654 188.87 17.1701H203.16ZM220.56 19.7501C220.562 19.7945 220.553 19.8388 220.534 19.8789C220.515 19.9191 220.486 19.9538 220.45 19.9801C220.42 20.0191 220.38 20.0496 220.334 20.0689C220.289 20.0881 220.239 20.0954 220.19 20.0901H210.19C210.07 20.0901 210.02 20.1501 210.02 20.2301V25.7301C210.02 25.8201 210.07 25.8801 210.19 25.8801H216.9C216.987 25.8889 217.069 25.9275 217.131 25.9895C217.193 26.0514 217.231 26.1329 217.24 26.2201V28.4001C217.242 28.4489 217.233 28.4975 217.214 28.5424C217.195 28.5874 217.167 28.6276 217.13 28.6601C217.099 28.6883 217.063 28.7099 217.023 28.7237C216.984 28.7374 216.942 28.743 216.9 28.7401H210.19C210.167 28.7368 210.143 28.7388 210.121 28.7462C210.099 28.7535 210.079 28.766 210.062 28.7825C210.046 28.799 210.034 28.8191 210.026 28.8413C210.019 28.8634 210.017 28.887 210.02 28.9101V34.5601C210.017 34.5832 210.019 34.6068 210.026 34.6289C210.034 34.6511 210.046 34.6712 210.062 34.6877C210.079 34.7042 210.099 34.7167 210.121 34.724C210.143 34.7314 210.167 34.7335 210.19 34.7301H220.19C220.237 34.7248 220.284 34.7292 220.328 34.7429C220.373 34.7567 220.415 34.7796 220.45 34.8101C220.52 34.8788 220.559 34.9723 220.56 35.0701V37.3101C220.562 37.3531 220.553 37.396 220.534 37.4346C220.515 37.4731 220.486 37.506 220.45 37.5301C220.422 37.5717 220.382 37.6048 220.337 37.6259C220.291 37.647 220.24 37.6554 220.19 37.6501H207.01C206.961 37.6557 206.912 37.6475 206.868 37.6262C206.824 37.605 206.786 37.5717 206.76 37.5301C206.726 37.5034 206.698 37.4701 206.678 37.4323C206.657 37.3945 206.644 37.3529 206.64 37.3101V17.4901C206.655 17.3968 206.696 17.3099 206.76 17.2401C206.793 17.2081 206.832 17.1835 206.875 17.1679C206.919 17.1524 206.964 17.1463 207.01 17.1501H220.19C220.237 17.1462 220.285 17.1521 220.33 17.1676C220.374 17.1831 220.415 17.2078 220.45 17.2401C220.484 17.2723 220.512 17.311 220.531 17.354C220.549 17.3969 220.559 17.4432 220.56 17.4901V19.7501ZM235.56 37.7001C235.471 37.7044 235.382 37.682 235.305 37.6357C235.229 37.5894 235.168 37.5213 235.13 37.4401L231.28 28.9901C231.259 28.956 231.23 28.9278 231.195 28.9085C231.16 28.8892 231.12 28.8794 231.08 28.8801H227.56C227.48 28.8801 227.42 28.8801 227.42 29.0201V37.3601C227.422 37.4032 227.413 37.446 227.394 37.4846C227.375 37.5231 227.346 37.556 227.31 37.5801C227.286 37.6185 227.252 37.6498 227.211 37.6709C227.171 37.6919 227.126 37.702 227.08 37.7001H224.36C224.315 37.701 224.27 37.6905 224.23 37.6695C224.19 37.6486 224.155 37.6178 224.13 37.5801C224.094 37.556 224.065 37.5231 224.046 37.4846C224.027 37.446 224.018 37.4032 224.02 37.3601V17.4901C224.021 17.4432 224.031 17.3969 224.05 17.354C224.069 17.311 224.096 17.2723 224.13 17.2401C224.192 17.1815 224.275 17.1492 224.36 17.1501H232.44C233.543 17.1217 234.634 17.3765 235.61 17.8901C236.504 18.3747 237.243 19.1029 237.74 19.9901C238.263 20.9528 238.529 22.0345 238.51 23.1301C238.554 24.3511 238.203 25.5538 237.51 26.5601C236.8 27.5332 235.781 28.2379 234.62 28.5601C234.57 28.5601 234.54 28.5601 234.54 28.6101C234.54 28.6601 234.54 28.7001 234.54 28.7301L238.65 37.2901C238.675 37.3108 238.695 37.3367 238.709 37.3661C238.723 37.3955 238.73 37.4276 238.73 37.4601C238.73 37.6001 238.62 37.6901 238.39 37.6901L235.56 37.7001ZM227.56 20.0901C227.523 20.0901 227.487 20.1049 227.461 20.1311C227.435 20.1574 227.42 20.193 227.42 20.2301V26.0701C227.42 26.1901 227.48 26.2201 227.56 26.2201H231.96C232.378 26.243 232.796 26.1812 233.19 26.0386C233.583 25.896 233.944 25.6754 234.25 25.3901C234.534 25.0987 234.756 24.7525 234.902 24.3725C235.049 23.9926 235.116 23.5869 235.1 23.1801C235.12 22.7684 235.055 22.357 234.908 21.9716C234.762 21.5862 234.538 21.235 234.25 20.9401C233.944 20.6535 233.584 20.4308 233.191 20.2849C232.797 20.1389 232.379 20.0728 231.96 20.0901H227.56ZM252.93 27.2901C252.977 27.2862 253.025 27.2921 253.07 27.3076C253.114 27.3231 253.155 27.3478 253.19 27.3801C253.224 27.4123 253.252 27.451 253.271 27.4939C253.289 27.5369 253.3 27.5832 253.3 27.6301V29.8701C253.299 29.9679 253.26 30.0614 253.19 30.1301C253.116 30.1879 253.024 30.2164 252.93 30.2101H248.65C248.613 30.2101 248.577 30.2249 248.551 30.2511C248.525 30.2774 248.51 30.313 248.51 30.3501V34.5801C248.516 34.6705 248.487 34.7598 248.43 34.8301C248.398 34.8673 248.358 34.8973 248.313 34.9179C248.268 34.9386 248.22 34.9496 248.17 34.9501H245.96C245.912 34.9494 245.865 34.9384 245.822 34.9176C245.779 34.8969 245.741 34.867 245.71 34.8301C245.678 34.7973 245.654 34.758 245.638 34.7149C245.622 34.6717 245.616 34.6258 245.62 34.5801V30.3501C245.62 30.313 245.605 30.2774 245.579 30.2511C245.553 30.2249 245.517 30.2101 245.48 30.2101H241.14C241.057 30.2094 240.976 30.1813 240.91 30.1301C240.841 30.0614 240.801 29.9679 240.8 29.8701V27.6301C240.801 27.5832 240.811 27.5369 240.83 27.4939C240.849 27.451 240.876 27.4123 240.91 27.3801C240.972 27.3215 241.055 27.2892 241.14 27.2901H245.48C245.56 27.2901 245.62 27.2901 245.62 27.1201V22.7901C245.622 22.6962 245.654 22.6053 245.71 22.5301C245.782 22.4768 245.87 22.4487 245.96 22.4501H248.17C248.263 22.4486 248.354 22.4767 248.43 22.5301C248.479 22.6082 248.507 22.6979 248.51 22.7901V27.1201C248.51 27.2401 248.57 27.2901 248.65 27.2901H252.93Z" fill="#209F85"/>
</svg>
