<svg width="70" height="70" viewBox="0 0 70 70" fill="none" xmlns="http://www.w3.org/2000/svg">
<path d="M47.5 5.48999V21.93C48.97 21.93 64.0101 21.93 64.0801 21.93C65.5049 21.9713 66.8583 22.5632 67.8559 23.5814C68.8535 24.5995 69.4178 25.9646 69.4301 27.39V42C69.4275 43.4501 68.8523 44.8404 67.8298 45.8686C66.8073 46.8967 65.4201 47.4794 63.9701 47.49H47.5V63.93C47.4974 65.3879 46.9171 66.7853 45.8862 67.8162C44.8553 68.847 43.4579 69.4274 42 69.43H27.4001C25.9553 69.4221 24.5722 68.844 23.5515 67.8215C22.5309 66.799 21.9553 65.4147 21.95 63.97C21.95 58.48 21.95 52.97 21.95 47.49H5.50004C4.7775 47.494 4.06135 47.3548 3.39292 47.0804C2.72449 46.806 2.11707 46.4019 1.60569 45.8915C1.09431 45.381 0.689074 44.7743 0.413489 44.1064C0.137904 43.4385 -0.00261588 42.7225 3.68698e-05 42V27.39C0.00797207 25.9374 0.591291 24.5472 1.62217 23.5238C2.65305 22.5004 4.04745 21.9273 5.50004 21.93H21.94V5.48999C21.9374 4.03833 22.5109 2.64495 23.5345 1.61566C24.5582 0.586373 25.9484 0.0052956 27.4001 0H42C43.4554 0.00525158 44.8498 0.585005 45.8798 1.61316C46.9098 2.64131 47.4921 4.03466 47.5 5.48999ZM34.7201 43.83C37.1363 43.8247 39.4519 42.8618 41.1595 41.1523C42.8671 39.4429 43.8274 37.1263 43.8301 34.71V25.56H25.56V38.37H21.94V25.56H5.50004C5.01377 25.56 4.54727 25.7525 4.20249 26.0954C3.85771 26.4383 3.66271 26.9038 3.66007 27.39V42C3.66531 42.4855 3.86114 42.9494 4.20536 43.2917C4.54958 43.6341 5.01457 43.8274 5.50004 43.83H34.7201ZM25.56 47.49V64C25.573 64.4776 25.7712 64.9313 26.1128 65.2654C26.4543 65.5994 26.9123 65.7876 27.3901 65.79H42C42.2411 65.7927 42.4803 65.7471 42.7035 65.6561C42.9268 65.5651 43.1296 65.4304 43.3 65.2599C43.4705 65.0895 43.6052 64.8867 43.6962 64.6635C43.7872 64.4402 43.8327 64.2011 43.8301 63.96V45.7C43.8299 45.2109 44.0215 44.7412 44.3636 44.3917C44.7057 44.0421 45.1711 43.8405 45.6601 43.83H63.94C64.4246 43.8274 64.8886 43.6337 65.2312 43.2911C65.5738 42.9485 65.7674 42.4845 65.7701 42V27.39C65.766 26.9229 65.5854 26.4746 65.2645 26.1352C64.9436 25.7958 64.5062 25.5903 64.0401 25.56H47.5V34.71C47.4921 38.0971 46.1431 41.3431 43.7481 43.7381C41.3531 46.1331 38.1071 47.4821 34.7201 47.49H25.56ZM43.8301 21.93V5.48999C43.8355 5.24818 43.7919 5.00776 43.7019 4.78326C43.6119 4.55877 43.4773 4.35487 43.3063 4.18384C43.1352 4.0128 42.9313 3.87818 42.7068 3.78815C42.4823 3.69812 42.2419 3.65451 42 3.65997H27.4001C27.1594 3.65865 26.9208 3.70507 26.6982 3.79657C26.4755 3.88807 26.2733 4.02286 26.1031 4.19305C25.9329 4.36325 25.7981 4.56552 25.7066 4.78815C25.6151 5.01077 25.5687 5.2493 25.57 5.48999V21.93H43.8301Z" fill="#209F85"/>
</svg>
